<mxfile host="app.diagrams.net" modified="2021-06-22T05:51:04.588Z" agent="5.0 (Windows NT 10.0; Win64; x64) AppleWebKit/537.36 (KHTML, like Gecko) Chrome/91.0.4472.77 Safari/537.36" etag="ibDgx6UhCy3sVNSaq6ia" version="14.8.0" type="github">
  <diagram id="JrFSPCjuFUnZ7v7BHWO6" name="第 1 页">
    <mxGraphModel dx="1422" dy="748" grid="1" gridSize="10" guides="1" tooltips="1" connect="1" arrows="1" fold="1" page="1" pageScale="1" pageWidth="1600" pageHeight="1200" math="0" shadow="0">
      <root>
        <mxCell id="0" />
        <mxCell id="1" parent="0" />
        <mxCell id="DQTUmN1sRUq_qriRjcVs-10" value="column1" style="rounded=0;whiteSpace=wrap;html=1;fillColor=none;" vertex="1" parent="1">
          <mxGeometry x="70" y="70" width="90" height="30" as="geometry" />
        </mxCell>
        <mxCell id="DQTUmN1sRUq_qriRjcVs-11" value="column2" style="rounded=0;whiteSpace=wrap;html=1;fillColor=none;" vertex="1" parent="1">
          <mxGeometry x="160" y="70" width="90" height="30" as="geometry" />
        </mxCell>
        <mxCell id="DQTUmN1sRUq_qriRjcVs-12" value="1" style="rounded=0;whiteSpace=wrap;html=1;fillColor=none;" vertex="1" parent="1">
          <mxGeometry x="70" y="100" width="90" height="30" as="geometry" />
        </mxCell>
        <mxCell id="DQTUmN1sRUq_qriRjcVs-13" value="34" style="rounded=0;whiteSpace=wrap;html=1;fillColor=none;" vertex="1" parent="1">
          <mxGeometry x="160" y="100" width="90" height="30" as="geometry" />
        </mxCell>
        <mxCell id="DQTUmN1sRUq_qriRjcVs-14" value="2" style="rounded=0;whiteSpace=wrap;html=1;fillColor=none;" vertex="1" parent="1">
          <mxGeometry x="70" y="130" width="90" height="30" as="geometry" />
        </mxCell>
        <mxCell id="DQTUmN1sRUq_qriRjcVs-15" value="77" style="rounded=0;whiteSpace=wrap;html=1;fillColor=none;" vertex="1" parent="1">
          <mxGeometry x="160" y="130" width="90" height="30" as="geometry" />
        </mxCell>
        <mxCell id="DQTUmN1sRUq_qriRjcVs-16" value="3" style="rounded=0;whiteSpace=wrap;html=1;fillColor=none;" vertex="1" parent="1">
          <mxGeometry x="70" y="160" width="90" height="30" as="geometry" />
        </mxCell>
        <mxCell id="DQTUmN1sRUq_qriRjcVs-17" value="5" style="rounded=0;whiteSpace=wrap;html=1;fillColor=none;" vertex="1" parent="1">
          <mxGeometry x="160" y="160" width="90" height="30" as="geometry" />
        </mxCell>
        <mxCell id="DQTUmN1sRUq_qriRjcVs-18" value="4" style="rounded=0;whiteSpace=wrap;html=1;fillColor=none;" vertex="1" parent="1">
          <mxGeometry x="70" y="190" width="90" height="30" as="geometry" />
        </mxCell>
        <mxCell id="DQTUmN1sRUq_qriRjcVs-19" value="30" style="rounded=0;whiteSpace=wrap;html=1;fillColor=none;" vertex="1" parent="1">
          <mxGeometry x="160" y="190" width="90" height="30" as="geometry" />
        </mxCell>
        <mxCell id="DQTUmN1sRUq_qriRjcVs-20" value="5" style="rounded=0;whiteSpace=wrap;html=1;fillColor=none;" vertex="1" parent="1">
          <mxGeometry x="70" y="220" width="90" height="30" as="geometry" />
        </mxCell>
        <mxCell id="DQTUmN1sRUq_qriRjcVs-21" value="22" style="rounded=0;whiteSpace=wrap;html=1;fillColor=none;" vertex="1" parent="1">
          <mxGeometry x="160" y="220" width="90" height="30" as="geometry" />
        </mxCell>
        <mxCell id="DQTUmN1sRUq_qriRjcVs-22" value="6" style="rounded=0;whiteSpace=wrap;html=1;fillColor=none;" vertex="1" parent="1">
          <mxGeometry x="70" y="250" width="90" height="30" as="geometry" />
        </mxCell>
        <mxCell id="DQTUmN1sRUq_qriRjcVs-23" value="85" style="rounded=0;whiteSpace=wrap;html=1;fillColor=none;" vertex="1" parent="1">
          <mxGeometry x="160" y="250" width="90" height="30" as="geometry" />
        </mxCell>
        <mxCell id="DQTUmN1sRUq_qriRjcVs-24" value="7" style="rounded=0;whiteSpace=wrap;html=1;fillColor=none;" vertex="1" parent="1">
          <mxGeometry x="70" y="280" width="90" height="30" as="geometry" />
        </mxCell>
        <mxCell id="DQTUmN1sRUq_qriRjcVs-25" value="89" style="rounded=0;whiteSpace=wrap;html=1;fillColor=none;" vertex="1" parent="1">
          <mxGeometry x="160" y="280" width="90" height="30" as="geometry" />
        </mxCell>
        <mxCell id="DQTUmN1sRUq_qriRjcVs-38" style="edgeStyle=none;rounded=0;orthogonalLoop=1;jettySize=auto;html=1;exitX=0.5;exitY=1;exitDx=0;exitDy=0;entryX=1;entryY=0;entryDx=0;entryDy=0;" edge="1" parent="1" source="DQTUmN1sRUq_qriRjcVs-26" target="DQTUmN1sRUq_qriRjcVs-30">
          <mxGeometry relative="1" as="geometry" />
        </mxCell>
        <mxCell id="DQTUmN1sRUq_qriRjcVs-39" style="edgeStyle=none;rounded=0;orthogonalLoop=1;jettySize=auto;html=1;exitX=0.5;exitY=1;exitDx=0;exitDy=0;entryX=0;entryY=0;entryDx=0;entryDy=0;" edge="1" parent="1" source="DQTUmN1sRUq_qriRjcVs-26" target="DQTUmN1sRUq_qriRjcVs-31">
          <mxGeometry relative="1" as="geometry" />
        </mxCell>
        <mxCell id="DQTUmN1sRUq_qriRjcVs-26" value="34" style="ellipse;whiteSpace=wrap;html=1;aspect=fixed;fillColor=none;" vertex="1" parent="1">
          <mxGeometry x="610" y="110" width="30" height="30" as="geometry" />
        </mxCell>
        <mxCell id="DQTUmN1sRUq_qriRjcVs-27" value="77" style="ellipse;whiteSpace=wrap;html=1;aspect=fixed;fillColor=none;" vertex="1" parent="1">
          <mxGeometry x="640" y="240" width="30" height="30" as="geometry" />
        </mxCell>
        <mxCell id="DQTUmN1sRUq_qriRjcVs-28" value="5" style="ellipse;whiteSpace=wrap;html=1;aspect=fixed;fillColor=none;" vertex="1" parent="1">
          <mxGeometry x="490" y="240" width="30" height="30" as="geometry" />
        </mxCell>
        <mxCell id="DQTUmN1sRUq_qriRjcVs-29" value="30" style="ellipse;whiteSpace=wrap;html=1;aspect=fixed;fillColor=none;" vertex="1" parent="1">
          <mxGeometry x="580" y="240" width="30" height="30" as="geometry" />
        </mxCell>
        <mxCell id="DQTUmN1sRUq_qriRjcVs-40" style="edgeStyle=none;rounded=0;orthogonalLoop=1;jettySize=auto;html=1;exitX=0.5;exitY=1;exitDx=0;exitDy=0;entryX=1;entryY=0;entryDx=0;entryDy=0;" edge="1" parent="1" source="DQTUmN1sRUq_qriRjcVs-30" target="DQTUmN1sRUq_qriRjcVs-28">
          <mxGeometry relative="1" as="geometry" />
        </mxCell>
        <mxCell id="DQTUmN1sRUq_qriRjcVs-41" style="edgeStyle=none;rounded=0;orthogonalLoop=1;jettySize=auto;html=1;exitX=0.5;exitY=1;exitDx=0;exitDy=0;entryX=0;entryY=0;entryDx=0;entryDy=0;" edge="1" parent="1" source="DQTUmN1sRUq_qriRjcVs-30" target="DQTUmN1sRUq_qriRjcVs-29">
          <mxGeometry relative="1" as="geometry" />
        </mxCell>
        <mxCell id="DQTUmN1sRUq_qriRjcVs-30" value="22" style="ellipse;whiteSpace=wrap;html=1;aspect=fixed;fillColor=none;" vertex="1" parent="1">
          <mxGeometry x="530" y="180" width="30" height="30" as="geometry" />
        </mxCell>
        <mxCell id="DQTUmN1sRUq_qriRjcVs-42" style="edgeStyle=none;rounded=0;orthogonalLoop=1;jettySize=auto;html=1;exitX=0.5;exitY=1;exitDx=0;exitDy=0;entryX=1;entryY=0;entryDx=0;entryDy=0;" edge="1" parent="1" source="DQTUmN1sRUq_qriRjcVs-31" target="DQTUmN1sRUq_qriRjcVs-27">
          <mxGeometry relative="1" as="geometry" />
        </mxCell>
        <mxCell id="DQTUmN1sRUq_qriRjcVs-43" style="edgeStyle=none;rounded=0;orthogonalLoop=1;jettySize=auto;html=1;exitX=0.5;exitY=1;exitDx=0;exitDy=0;entryX=0;entryY=0;entryDx=0;entryDy=0;" edge="1" parent="1" source="DQTUmN1sRUq_qriRjcVs-31" target="DQTUmN1sRUq_qriRjcVs-32">
          <mxGeometry relative="1" as="geometry" />
        </mxCell>
        <mxCell id="DQTUmN1sRUq_qriRjcVs-31" value="85" style="ellipse;whiteSpace=wrap;html=1;aspect=fixed;fillColor=none;" vertex="1" parent="1">
          <mxGeometry x="690" y="180" width="30" height="30" as="geometry" />
        </mxCell>
        <mxCell id="DQTUmN1sRUq_qriRjcVs-32" value="89" style="ellipse;whiteSpace=wrap;html=1;aspect=fixed;fillColor=none;" vertex="1" parent="1">
          <mxGeometry x="740" y="240" width="30" height="30" as="geometry" />
        </mxCell>
      </root>
    </mxGraphModel>
  </diagram>
</mxfile>
